<?xml version="1.0" standalone="no"?>
<svg width="64" height="64" viewBox="0 0 384 384" version="1.1" xmlns="http://www.w3.org/2000/svg">
  <path d="M319 191c37 -7 65 -40 65 -79c0 -20 -8 -39 -21 -54c-15 -17 -37 -26 -61 -26c-8 0 -17 1 -25 3c-6 1 -10 3 -15 5c-11 -15 -23 -25 -32 -33v0c-5 -5 -12 -7 -19 -7h-102c-7 0 -14 2 -19 7v0c-17 15 -41 36 -62 86s-28 91 -28 111s3 20 16 20h101c-5 17 -37 19 -37 46 c0 17 15 32 28 37c-2 -8 -3 -14 -3 -21c0 -19 39 -30 39 -53c0 -3 0 -6 -1 -9h56c1 5 2 10 2 14c0 36 -56 36 -56 84c0 28 21 55 47 62c-4 -14 -9 -23 -9 -35c0 -32 57 -50 57 -88c0 -13 -5 -25 -12 -37h76c13 0 16 0 16 -20c0 -4 0 -8 -1 -13zM302 64c33 0 50 25 50 48 s-17 43 -39 47c-4 -19 -11 -42 -21 -66c-4 -9 -8 -17 -12 -25c6 -3 13 -4 22 -4z" transform="matrix(1,0,0,-1,0,384)"/>
</svg>