<?xml version="1.0" encoding="utf-8"?>
<!-- Generator: Adobe Illustrator 16.0.0, SVG Export Plug-In . SVG Version: 6.00 Build 0)  -->
<!DOCTYPE svg PUBLIC "-//W3C//DTD SVG 1.1//EN" "http://www.w3.org/Graphics/SVG/1.1/DTD/svg11.dtd">
<svg version="1.1" id="图层_1" xmlns="http://www.w3.org/2000/svg" xmlns:xlink="http://www.w3.org/1999/xlink" x="0px" y="0px"
	 width="171.549px" height="195.982px" viewBox="0 0 171.549 195.982" enable-background="new 0 0 171.549 195.982"
	 xml:space="preserve">
<path d="M83.81,103.24c28.884,0,52.388-23.152,52.386-51.62C136.196,23.154,112.694,0,83.81,0C54.925,0,31.423,23.161,31.423,51.619
	C31.423,80.079,54.925,103.24,83.81,103.24z M105.397,108.21H66.146C29.669,108.21,0,137.423,0,173.341v3.866
	c0,18.776,29.194,18.776,66.146,18.776h39.251c35.498,0,66.152,0,66.152-18.776v-3.866
	C171.55,137.431,141.876,108.21,105.397,108.21z"/>
</svg>
